<?xml version="1.0" encoding="UTF-8" standalone="no"?>
<!DOCTYPE svg PUBLIC "-//W3C//DTD SVG 1.1//EN"
 "http://www.w3.org/Graphics/SVG/1.1/DTD/svg11.dtd">
<!-- Generated by graphviz version 2.30.1 (20180828.1746)
 -->
<!-- Title: all_states Pages: 1 -->
<svg width="1812pt" height="1052pt"
 viewBox="0.00 0.00 1811.98 1052.00" xmlns="http://www.w3.org/2000/svg" xmlns:xlink="http://www.w3.org/1999/xlink">
<g id="graph0" class="graph" transform="scale(1 1) rotate(0) translate(4 1048)">
<title>all_states</title>
<polygon fill="white" stroke="white" points="-4,5 -4,-1048 1808.98,-1048 1808.98,5 -4,5"/>
<!-- before_existence -->
<g id="node1" class="node"><title>before_existence</title>
<polygon fill="none" stroke="black" points="649,-1044 587,-1044 587,-1008 649,-1008 649,-1044"/>
<text text-anchor="middle" x="618" y="-1022.3" font-family="Times,serif" font-size="14.00">no stack</text>
</g>
<!-- CREATE_IN_PROGRESS -->
<g id="node2" class="node"><title>CREATE_IN_PROGRESS</title>
<ellipse fill="yellow" stroke="black" cx="562" cy="-850" rx="106.386" ry="18"/>
<text text-anchor="middle" x="562" y="-846.3" font-family="Times,serif" font-size="14.00">CREATE_IN_PROGRESS</text>
</g>
<!-- before_existence&#45;&gt;CREATE_IN_PROGRESS -->
<g id="edge1" class="edge"><title>before_existence&#45;&gt;CREATE_IN_PROGRESS</title>
<path fill="none" stroke="black" d="M602.672,-1007.95C591.797,-994.77 577.946,-975.528 571,-956 562.031,-930.783 560.373,-900.1 560.6,-878.432"/>
<polygon fill="black" stroke="black" points="564.102,-878.374 560.85,-868.291 557.104,-878.202 564.102,-878.374"/>
<text text-anchor="middle" x="604" y="-934.3" font-family="Times,serif" font-size="14.00">CreateStack</text>
</g>
<!-- REVIEW_IN_PROGRESS -->
<g id="node3" class="node"><title>REVIEW_IN_PROGRESS</title>
<ellipse fill="yellow" stroke="black" cx="753" cy="-938" rx="107.361" ry="18"/>
<text text-anchor="middle" x="753" y="-934.3" font-family="Times,serif" font-size="14.00">REVIEW_IN_PROGRESS</text>
</g>
<!-- before_existence&#45;&gt;REVIEW_IN_PROGRESS -->
<g id="edge2" class="edge"><title>before_existence&#45;&gt;REVIEW_IN_PROGRESS</title>
<path fill="none" stroke="black" d="M644.995,-1007.8C666.053,-994.389 695.457,-975.657 718.269,-961.125"/>
<polygon fill="black" stroke="black" points="720.416,-963.907 726.969,-955.582 716.655,-958.003 720.416,-963.907"/>
<text text-anchor="middle" x="745" y="-978.3" font-family="Times,serif" font-size="14.00">CreateChangeSet</text>
</g>
<!-- CREATE_COMPLETE -->
<g id="node4" class="node"><title>CREATE_COMPLETE</title>
<ellipse fill="green" stroke="black" cx="1206" cy="-732" rx="95.3122" ry="18"/>
<text text-anchor="middle" x="1206" y="-728.3" font-family="Times,serif" font-size="14.00">CREATE_COMPLETE</text>
</g>
<!-- CREATE_IN_PROGRESS&#45;&gt;CREATE_COMPLETE -->
<g id="edge7" class="edge"><title>CREATE_IN_PROGRESS&#45;&gt;CREATE_COMPLETE</title>
<path fill="none" stroke="green" d="M631.838,-836.42C753.579,-814.492 1003.68,-769.442 1129.77,-746.732"/>
<polygon fill="green" stroke="green" points="1130.51,-750.154 1139.73,-744.936 1129.27,-743.265 1130.51,-750.154"/>
<text text-anchor="middle" x="1018.5" y="-787.3" font-family="Times,serif" font-size="14.00">success</text>
</g>
<!-- ROLLBACK_IN_PROGRESS -->
<g id="node8" class="node"><title>ROLLBACK_IN_PROGRESS</title>
<ellipse fill="yellow" stroke="black" cx="252" cy="-407" rx="117.935" ry="18"/>
<text text-anchor="middle" x="252" y="-403.3" font-family="Times,serif" font-size="14.00">ROLLBACK_IN_PROGRESS</text>
</g>
<!-- CREATE_IN_PROGRESS&#45;&gt;ROLLBACK_IN_PROGRESS -->
<g id="edge8" class="edge"><title>CREATE_IN_PROGRESS&#45;&gt;ROLLBACK_IN_PROGRESS</title>
<path fill="none" stroke="red" d="M476.156,-839.373C435.073,-833.508 391.146,-825.01 374,-814 336.959,-790.215 317,-777.02 317,-733 317,-733 317,-733 317,-526 317,-490.38 293.995,-455.379 275.357,-432.867"/>
<polygon fill="red" stroke="red" points="277.909,-430.467 268.739,-425.16 272.599,-435.027 277.909,-430.467"/>
<text text-anchor="middle" x="358" y="-620.3" font-family="Times,serif" font-size="14.00">failed (default)</text>
</g>
<!-- CREATE_FAILED -->
<g id="node9" class="node"><title>CREATE_FAILED</title>
<ellipse fill="pink" stroke="black" cx="423" cy="-678" rx="78.9404" ry="18"/>
<text text-anchor="middle" x="423" y="-674.3" font-family="Times,serif" font-size="14.00">CREATE_FAILED</text>
</g>
<!-- CREATE_IN_PROGRESS&#45;&gt;CREATE_FAILED -->
<g id="edge9" class="edge"><title>CREATE_IN_PROGRESS&#45;&gt;CREATE_FAILED</title>
<path fill="none" stroke="red" d="M470.152,-840.914C434.644,-835.717 399.913,-827.342 389,-814 363.206,-782.465 386.121,-733.929 404.783,-704.452"/>
<polygon fill="red" stroke="red" points="407.801,-706.232 410.38,-695.956 401.956,-702.382 407.801,-706.232"/>
<text text-anchor="middle" x="468.5" y="-802.3" font-family="Times,serif" font-size="14.00">failed</text>
<text text-anchor="middle" x="468.5" y="-787.3" font-family="Times,serif" font-size="14.00">OnFailure==DO_NOTHING</text>
<text text-anchor="middle" x="468.5" y="-772.3" font-family="Times,serif" font-size="14.00">or DisableRollback==true</text>
</g>
<!-- DELETE_IN_PROGRESS -->
<g id="node6" class="node"><title>DELETE_IN_PROGRESS</title>
<ellipse fill="yellow" stroke="black" cx="627" cy="-208" rx="105.411" ry="18"/>
<text text-anchor="middle" x="627" y="-204.3" font-family="Times,serif" font-size="14.00">DELETE_IN_PROGRESS</text>
</g>
<!-- CREATE_IN_PROGRESS&#45;&gt;DELETE_IN_PROGRESS -->
<g id="edge10" class="edge"><title>CREATE_IN_PROGRESS&#45;&gt;DELETE_IN_PROGRESS</title>
<path fill="none" stroke="red" d="M562,-831.705C562,-809.038 562,-768.042 562,-733 562,-733 562,-733 562,-579 562,-448.873 601.483,-296.833 618.905,-236.08"/>
<polygon fill="red" stroke="red" points="622.361,-236.729 621.791,-226.149 615.639,-234.775 622.361,-236.729"/>
<text text-anchor="middle" x="628" y="-530.8" font-family="Times,serif" font-size="14.00">failed</text>
<text text-anchor="middle" x="628" y="-515.8" font-family="Times,serif" font-size="14.00">OnFailure==DELETE</text>
</g>
<!-- REVIEW_IN_PROGRESS&#45;&gt;CREATE_IN_PROGRESS -->
<g id="edge5" class="edge"><title>REVIEW_IN_PROGRESS&#45;&gt;CREATE_IN_PROGRESS</title>
<path fill="none" stroke="black" d="M717.074,-920.824C685.861,-906.77 640.511,-886.351 606.909,-871.221"/>
<polygon fill="black" stroke="black" points="608.32,-868.018 597.765,-867.103 605.446,-874.401 608.32,-868.018"/>
<text text-anchor="middle" x="725.5" y="-890.3" font-family="Times,serif" font-size="14.00">ExecuteChangeSet</text>
</g>
<!-- DELETE_COMPLETE -->
<g id="node7" class="node"><title>DELETE_COMPLETE</title>
<ellipse fill="green" stroke="black" cx="842" cy="-106" rx="94.338" ry="18"/>
<text text-anchor="middle" x="842" y="-102.3" font-family="Times,serif" font-size="14.00">DELETE_COMPLETE</text>
</g>
<!-- REVIEW_IN_PROGRESS&#45;&gt;DELETE_COMPLETE -->
<g id="edge6" class="edge"><title>REVIEW_IN_PROGRESS&#45;&gt;DELETE_COMPLETE</title>
<path fill="none" stroke="black" d="M856.148,-932.931C1101.59,-922.567 1700,-892.994 1700,-851 1700,-851 1700,-851 1700,-207 1700,-131.905 1174.76,-113.104 946.19,-108.477"/>
<polygon fill="black" stroke="black" points="945.932,-104.971 935.864,-108.274 945.794,-111.97 945.932,-104.971"/>
<text text-anchor="middle" x="1733" y="-523.3" font-family="Times,serif" font-size="14.00">DeleteStack</text>
</g>
<!-- UPDATE_IN_PROGRESS -->
<g id="node5" class="node"><title>UPDATE_IN_PROGRESS</title>
<ellipse fill="yellow" stroke="black" cx="1206" cy="-624" rx="106.386" ry="18"/>
<text text-anchor="middle" x="1206" y="-620.3" font-family="Times,serif" font-size="14.00">UPDATE_IN_PROGRESS</text>
</g>
<!-- CREATE_COMPLETE&#45;&gt;UPDATE_IN_PROGRESS -->
<g id="edge3" class="edge"><title>CREATE_COMPLETE&#45;&gt;UPDATE_IN_PROGRESS</title>
<path fill="none" stroke="black" d="M1206,-713.969C1206,-697.378 1206,-671.883 1206,-652.431"/>
<polygon fill="black" stroke="black" points="1209.5,-652.341 1206,-642.341 1202.5,-652.341 1209.5,-652.341"/>
<text text-anchor="middle" x="1256.5" y="-681.8" font-family="Times,serif" font-size="14.00">UpdateStack or</text>
<text text-anchor="middle" x="1256.5" y="-666.8" font-family="Times,serif" font-size="14.00">ExecuteChangeSet</text>
</g>
<!-- CREATE_COMPLETE&#45;&gt;DELETE_IN_PROGRESS -->
<g id="edge4" class="edge"><title>CREATE_COMPLETE&#45;&gt;DELETE_IN_PROGRESS</title>
<path fill="none" stroke="black" d="M1295.87,-725.962C1417.36,-716.644 1619,-691.206 1619,-625 1619,-625 1619,-625 1619,-295 1619,-229.427 2248.31,-321.146 1180,-244 1025.66,-232.855 846.95,-221.897 735.426,-215.292"/>
<polygon fill="black" stroke="black" points="735.37,-211.782 725.181,-214.686 734.957,-218.77 735.37,-211.782"/>
<text text-anchor="middle" x="1652" y="-463.3" font-family="Times,serif" font-size="14.00">DeleteStack</text>
</g>
<!-- UPDATE_COMPLETE_CLEANUP_IN_PROGRESS -->
<g id="node15" class="node"><title>UPDATE_COMPLETE_CLEANUP_IN_PROGRESS</title>
<ellipse fill="yellow" stroke="black" cx="825" cy="-527" rx="123.055" ry="26.7407"/>
<text text-anchor="middle" x="825" y="-530.8" font-family="Times,serif" font-size="14.00">UPDATE_COMPLETE</text>
<text text-anchor="middle" x="825" y="-515.8" font-family="Times,serif" font-size="14.00">CLEANUP_IN_PROGRESS</text>
</g>
<!-- UPDATE_IN_PROGRESS&#45;&gt;UPDATE_COMPLETE_CLEANUP_IN_PROGRESS -->
<g id="edge25" class="edge"><title>UPDATE_IN_PROGRESS&#45;&gt;UPDATE_COMPLETE_CLEANUP_IN_PROGRESS</title>
<path fill="none" stroke="green" d="M1102.53,-619.666C1049.51,-615.541 984.591,-606.699 929,-588 907.946,-580.918 886.4,-569.336 868.419,-558.227"/>
<polygon fill="green" stroke="green" points="870.218,-555.223 859.896,-552.833 866.475,-561.138 870.218,-555.223"/>
<text text-anchor="middle" x="949.5" y="-576.3" font-family="Times,serif" font-size="14.00">success</text>
</g>
<!-- UPDATE_ROLLBACK_IN_PROGRESS -->
<g id="node16" class="node"><title>UPDATE_ROLLBACK_IN_PROGRESS</title>
<ellipse fill="yellow" stroke="black" cx="1260" cy="-527" rx="156.454" ry="18"/>
<text text-anchor="middle" x="1260" y="-523.3" font-family="Times,serif" font-size="14.00">UPDATE_ROLLBACK_IN_PROGRESS</text>
</g>
<!-- UPDATE_IN_PROGRESS&#45;&gt;UPDATE_ROLLBACK_IN_PROGRESS -->
<g id="edge26" class="edge"><title>UPDATE_IN_PROGRESS&#45;&gt;UPDATE_ROLLBACK_IN_PROGRESS</title>
<path fill="none" stroke="red" d="M1202.86,-605.636C1201.83,-595.362 1202.01,-582.373 1207,-572 1210.77,-564.178 1216.66,-557.254 1223.17,-551.348"/>
<polygon fill="red" stroke="red" points="1225.51,-553.951 1231,-544.889 1221.06,-548.55 1225.51,-553.951"/>
<text text-anchor="middle" x="1222.5" y="-576.3" font-family="Times,serif" font-size="14.00">failed</text>
</g>
<!-- UPDATE_IN_PROGRESS&#45;&gt;UPDATE_ROLLBACK_IN_PROGRESS -->
<g id="edge27" class="edge"><title>UPDATE_IN_PROGRESS&#45;&gt;UPDATE_ROLLBACK_IN_PROGRESS</title>
<path fill="none" stroke="black" d="M1224.06,-605.924C1229.05,-600.538 1234.15,-594.332 1238,-588 1244.2,-577.797 1249.08,-565.57 1252.64,-554.824"/>
<polygon fill="black" stroke="black" points="1256.04,-555.676 1255.66,-545.088 1249.36,-553.601 1256.04,-555.676"/>
<text text-anchor="middle" x="1299" y="-576.3" font-family="Times,serif" font-size="14.00">CancelUpdateStack</text>
</g>
<!-- DELETE_IN_PROGRESS&#45;&gt;DELETE_COMPLETE -->
<g id="edge14" class="edge"><title>DELETE_IN_PROGRESS&#45;&gt;DELETE_COMPLETE</title>
<path fill="none" stroke="green" d="M698.097,-194.597C719.343,-189.315 742.228,-181.994 762,-172 782.945,-161.414 803.424,-144.616 818.419,-130.749"/>
<polygon fill="green" stroke="green" points="820.886,-133.234 825.734,-123.813 816.069,-128.154 820.886,-133.234"/>
<text text-anchor="middle" x="824.5" y="-153.3" font-family="Times,serif" font-size="14.00">success</text>
</g>
<!-- DELETE_FAILED -->
<g id="node11" class="node"><title>DELETE_FAILED</title>
<ellipse fill="pink" stroke="black" cx="635" cy="-106" rx="78.9404" ry="18"/>
<text text-anchor="middle" x="635" y="-102.3" font-family="Times,serif" font-size="14.00">DELETE_FAILED</text>
</g>
<!-- DELETE_IN_PROGRESS&#45;&gt;DELETE_FAILED -->
<g id="edge15" class="edge"><title>DELETE_IN_PROGRESS&#45;&gt;DELETE_FAILED</title>
<path fill="none" stroke="red" d="M608.355,-190.098C603.752,-184.805 599.443,-178.605 597,-172 592.374,-159.495 591.646,-154.211 597,-142 598.742,-138.026 601.183,-134.305 603.996,-130.882"/>
<polygon fill="red" stroke="red" points="606.709,-133.109 611.082,-123.459 601.645,-128.276 606.709,-133.109"/>
<text text-anchor="middle" x="612.5" y="-153.3" font-family="Times,serif" font-size="14.00">failed</text>
</g>
<!-- after_existence -->
<g id="node10" class="node"><title>after_existence</title>
<polygon fill="none" stroke="black" points="873,-36 811,-36 811,-0 873,-0 873,-36"/>
<text text-anchor="middle" x="842" y="-14.3" font-family="Times,serif" font-size="14.00">no stack</text>
</g>
<!-- DELETE_COMPLETE&#45;&gt;after_existence -->
<g id="edge12" class="edge"><title>DELETE_COMPLETE&#45;&gt;after_existence</title>
<path fill="none" stroke="black" d="M842,-87.5966C842,-75.7459 842,-59.8169 842,-46.2917"/>
<polygon fill="black" stroke="black" points="845.5,-46.084 842,-36.084 838.5,-46.084 845.5,-46.084"/>
<text text-anchor="middle" x="878.5" y="-58.3" font-family="Times,serif" font-size="14.00"> 90 days later</text>
</g>
<!-- ROLLBACK_COMPLETE -->
<g id="node12" class="node"><title>ROLLBACK_COMPLETE</title>
<ellipse fill="green" stroke="black" cx="411" cy="-296" rx="107.336" ry="18"/>
<text text-anchor="middle" x="411" y="-292.3" font-family="Times,serif" font-size="14.00">ROLLBACK_COMPLETE</text>
</g>
<!-- ROLLBACK_IN_PROGRESS&#45;&gt;ROLLBACK_COMPLETE -->
<g id="edge18" class="edge"><title>ROLLBACK_IN_PROGRESS&#45;&gt;ROLLBACK_COMPLETE</title>
<path fill="none" stroke="green" d="M276.495,-389.208C303.769,-370.51 347.984,-340.2 378.222,-319.471"/>
<polygon fill="green" stroke="green" points="380.469,-322.174 386.738,-313.633 376.511,-316.4 380.469,-322.174"/>
<text text-anchor="middle" x="380.5" y="-343.3" font-family="Times,serif" font-size="14.00">success</text>
</g>
<!-- ROLLBACK_FAILED -->
<g id="node13" class="node"><title>ROLLBACK_FAILED</title>
<ellipse fill="pink" stroke="black" cx="91" cy="-296" rx="91.4625" ry="18"/>
<text text-anchor="middle" x="91" y="-292.3" font-family="Times,serif" font-size="14.00">ROLLBACK_FAILED</text>
</g>
<!-- ROLLBACK_IN_PROGRESS&#45;&gt;ROLLBACK_FAILED -->
<g id="edge19" class="edge"><title>ROLLBACK_IN_PROGRESS&#45;&gt;ROLLBACK_FAILED</title>
<path fill="none" stroke="red" d="M220.231,-389.493C205.817,-381.648 188.738,-371.846 174,-362 154.69,-349.099 134.132,-333.019 118.307,-320.08"/>
<polygon fill="red" stroke="red" points="120.435,-317.299 110.494,-313.634 115.98,-322.698 120.435,-317.299"/>
<text text-anchor="middle" x="189.5" y="-343.3" font-family="Times,serif" font-size="14.00">failed</text>
</g>
<!-- ROLLBACK_IN_PROGRESS&#45;&gt;DELETE_IN_PROGRESS -->
<g id="edge20" class="edge"><title>ROLLBACK_IN_PROGRESS&#45;&gt;DELETE_IN_PROGRESS</title>
<path fill="none" stroke="black" d="M241.014,-388.872C225.327,-362.026 201.207,-309.824 228,-278 264.021,-235.215 409.408,-218.96 514.293,-212.784"/>
<polygon fill="black" stroke="black" points="514.525,-216.276 524.311,-212.217 514.129,-209.288 514.525,-216.276"/>
<text text-anchor="middle" x="261" y="-292.3" font-family="Times,serif" font-size="14.00">DeleteStack</text>
</g>
<!-- CREATE_FAILED&#45;&gt;DELETE_IN_PROGRESS -->
<g id="edge11" class="edge"><title>CREATE_FAILED&#45;&gt;DELETE_IN_PROGRESS</title>
<path fill="none" stroke="black" d="M427.238,-659.771C445.142,-587.971 516.186,-313.077 571,-244 574.789,-239.225 579.42,-234.923 584.38,-231.105"/>
<polygon fill="black" stroke="black" points="586.743,-233.724 592.946,-225.136 582.741,-227.981 586.743,-233.724"/>
<text text-anchor="middle" x="518" y="-463.3" font-family="Times,serif" font-size="14.00">DeleteStack</text>
</g>
<!-- DELETE_FAILED&#45;&gt;DELETE_IN_PROGRESS -->
<g id="edge13" class="edge"><title>DELETE_FAILED&#45;&gt;DELETE_IN_PROGRESS</title>
<path fill="none" stroke="black" d="M634.657,-124.138C634.285,-137.263 633.527,-155.805 632,-172 631.758,-174.567 631.461,-177.233 631.133,-179.898"/>
<polygon fill="black" stroke="black" points="627.646,-179.569 629.77,-189.949 634.582,-180.51 627.646,-179.569"/>
<text text-anchor="middle" x="696" y="-160.8" font-family="Times,serif" font-size="14.00">DeleteStack</text>
<text text-anchor="middle" x="696" y="-145.8" font-family="Times,serif" font-size="14.00">fix or RetainResources</text>
</g>
<!-- ROLLBACK_COMPLETE&#45;&gt;DELETE_IN_PROGRESS -->
<g id="edge16" class="edge"><title>ROLLBACK_COMPLETE&#45;&gt;DELETE_IN_PROGRESS</title>
<path fill="none" stroke="black" d="M425.45,-277.793C435.866,-266.501 450.879,-252.332 467,-244 487.244,-233.537 510.493,-226.195 532.882,-221.045"/>
<polygon fill="black" stroke="black" points="533.724,-224.444 542.752,-218.9 532.237,-217.604 533.724,-224.444"/>
<text text-anchor="middle" x="500" y="-248.3" font-family="Times,serif" font-size="14.00">DeleteStack</text>
</g>
<!-- ROLLBACK_FAILED&#45;&gt;DELETE_IN_PROGRESS -->
<g id="edge17" class="edge"><title>ROLLBACK_FAILED&#45;&gt;DELETE_IN_PROGRESS</title>
<path fill="none" stroke="black" d="M101.801,-278.076C110.343,-266.292 123.406,-251.411 139,-244 171.969,-228.332 380.689,-217.925 514.271,-212.777"/>
<polygon fill="black" stroke="black" points="514.695,-216.264 524.554,-212.386 514.428,-209.269 514.695,-216.264"/>
<text text-anchor="middle" x="172" y="-248.3" font-family="Times,serif" font-size="14.00">DeleteStack</text>
</g>
<!-- UPDATE_COMPLETE -->
<g id="node14" class="node"><title>UPDATE_COMPLETE</title>
<ellipse fill="green" stroke="black" cx="709" cy="-407" rx="95.3122" ry="18"/>
<text text-anchor="middle" x="709" y="-403.3" font-family="Times,serif" font-size="14.00">UPDATE_COMPLETE</text>
</g>
<!-- UPDATE_COMPLETE&#45;&gt;DELETE_IN_PROGRESS -->
<g id="edge21" class="edge"><title>UPDATE_COMPLETE&#45;&gt;DELETE_IN_PROGRESS</title>
<path fill="none" stroke="black" d="M701.866,-388.862C687.54,-354.443 655.18,-276.701 638.076,-235.61"/>
<polygon fill="black" stroke="black" points="641.25,-234.126 634.175,-226.238 634.787,-236.816 641.25,-234.126"/>
<text text-anchor="middle" x="703" y="-292.3" font-family="Times,serif" font-size="14.00">DeleteStack</text>
</g>
<!-- UPDATE_COMPLETE&#45;&gt;UPDATE_IN_PROGRESS -->
<g id="edge22" class="edge"><title>UPDATE_COMPLETE&#45;&gt;UPDATE_IN_PROGRESS</title>
<path fill="none" stroke="black" d="M762.826,-421.916C779.215,-425.994 797.307,-430.338 814,-434 855.549,-443.115 870.312,-432.277 908,-452 935.01,-466.136 937.551,-476.524 957,-500 975.402,-522.212 970.003,-536.589 993,-554 1030.08,-582.076 1079.03,-598.98 1120.66,-609.023"/>
<polygon fill="black" stroke="black" points="1119.99,-612.46 1130.52,-611.308 1121.57,-605.64 1119.99,-612.46"/>
<text text-anchor="middle" x="1043.5" y="-530.8" font-family="Times,serif" font-size="14.00">UpdateStack or</text>
<text text-anchor="middle" x="1043.5" y="-515.8" font-family="Times,serif" font-size="14.00">ExecuteChangeSet</text>
</g>
<!-- UPDATE_COMPLETE_CLEANUP_IN_PROGRESS&#45;&gt;UPDATE_COMPLETE -->
<g id="edge23" class="edge"><title>UPDATE_COMPLETE_CLEANUP_IN_PROGRESS&#45;&gt;UPDATE_COMPLETE</title>
<path fill="none" stroke="red" d="M807.42,-500.34C796.617,-485.446 782.006,-466.772 767,-452 759.287,-444.407 750.244,-436.971 741.624,-430.436"/>
<polygon fill="red" stroke="red" points="743.67,-427.596 733.547,-424.471 739.512,-433.227 743.67,-427.596"/>
<text text-anchor="middle" x="848.5" y="-470.8" font-family="Times,serif" font-size="14.00">success, resource(s)</text>
<text text-anchor="middle" x="848.5" y="-455.8" font-family="Times,serif" font-size="14.00">could not be deleted</text>
</g>
<!-- UPDATE_COMPLETE_CLEANUP_IN_PROGRESS&#45;&gt;UPDATE_COMPLETE -->
<g id="edge24" class="edge"><title>UPDATE_COMPLETE_CLEANUP_IN_PROGRESS&#45;&gt;UPDATE_COMPLETE</title>
<path fill="none" stroke="green" d="M751.403,-505.469C740.198,-499.495 729.793,-491.827 722,-482 711.695,-469.006 708.419,-450.666 707.733,-435.496"/>
<polygon fill="green" stroke="green" points="711.229,-435.095 707.627,-425.131 704.229,-435.166 711.229,-435.095"/>
<text text-anchor="middle" x="742.5" y="-463.3" font-family="Times,serif" font-size="14.00">success</text>
</g>
<!-- UPDATE_ROLLBACK_COMPLETE_CLEANUP_IN_PROGRESS -->
<g id="node18" class="node"><title>UPDATE_ROLLBACK_COMPLETE_CLEANUP_IN_PROGRESS</title>
<ellipse fill="yellow" stroke="black" cx="1259" cy="-407" rx="158.088" ry="26.7407"/>
<text text-anchor="middle" x="1259" y="-410.8" font-family="Times,serif" font-size="14.00">UPDATE_ROLLBACK_COMPLETE</text>
<text text-anchor="middle" x="1259" y="-395.8" font-family="Times,serif" font-size="14.00">CLEANUP_IN_PROGRESS</text>
</g>
<!-- UPDATE_ROLLBACK_IN_PROGRESS&#45;&gt;UPDATE_ROLLBACK_COMPLETE_CLEANUP_IN_PROGRESS -->
<g id="edge34" class="edge"><title>UPDATE_ROLLBACK_IN_PROGRESS&#45;&gt;UPDATE_ROLLBACK_COMPLETE_CLEANUP_IN_PROGRESS</title>
<path fill="none" stroke="green" d="M1259.85,-508.842C1259.71,-491.923 1259.49,-465.547 1259.31,-444.013"/>
<polygon fill="green" stroke="green" points="1262.8,-443.863 1259.22,-433.893 1255.8,-443.923 1262.8,-443.863"/>
<text text-anchor="middle" x="1280.5" y="-463.3" font-family="Times,serif" font-size="14.00">success</text>
</g>
<!-- UPDATE_ROLLBACK_FAILED -->
<g id="node19" class="node"><title>UPDATE_ROLLBACK_FAILED</title>
<ellipse fill="pink" stroke="black" cx="953" cy="-407" rx="129.483" ry="18"/>
<text text-anchor="middle" x="953" y="-403.3" font-family="Times,serif" font-size="14.00">UPDATE_ROLLBACK_FAILED</text>
</g>
<!-- UPDATE_ROLLBACK_IN_PROGRESS&#45;&gt;UPDATE_ROLLBACK_FAILED -->
<g id="edge35" class="edge"><title>UPDATE_ROLLBACK_IN_PROGRESS&#45;&gt;UPDATE_ROLLBACK_FAILED</title>
<path fill="none" stroke="red" d="M1243.95,-508.783C1226.99,-491.673 1198.64,-466.019 1169,-452 1162.71,-449.027 1093.94,-435.247 1035.66,-423.89"/>
<polygon fill="red" stroke="red" points="1036.15,-420.42 1025.67,-421.946 1034.82,-427.291 1036.15,-420.42"/>
<text text-anchor="middle" x="1230.5" y="-463.3" font-family="Times,serif" font-size="14.00">failed</text>
</g>
<!-- UPDATE_ROLLBACK_COMPLETE -->
<g id="node17" class="node"><title>UPDATE_ROLLBACK_COMPLETE</title>
<ellipse fill="green" stroke="black" cx="1445" cy="-296" rx="145.38" ry="18"/>
<text text-anchor="middle" x="1445" y="-292.3" font-family="Times,serif" font-size="14.00">UPDATE_ROLLBACK_COMPLETE</text>
</g>
<!-- UPDATE_ROLLBACK_COMPLETE&#45;&gt;UPDATE_IN_PROGRESS -->
<g id="edge28" class="edge"><title>UPDATE_ROLLBACK_COMPLETE&#45;&gt;UPDATE_IN_PROGRESS</title>
<path fill="none" stroke="black" d="M1448.99,-314.167C1458.23,-358.352 1476.57,-477.854 1425,-554 1408.97,-577.664 1342.19,-596.466 1286.54,-608.429"/>
<polygon fill="black" stroke="black" points="1285.72,-605.026 1276.65,-610.509 1287.16,-611.876 1285.72,-605.026"/>
<text text-anchor="middle" x="1507.5" y="-470.8" font-family="Times,serif" font-size="14.00">UpdateStack or</text>
<text text-anchor="middle" x="1507.5" y="-455.8" font-family="Times,serif" font-size="14.00">ExecuteChangeSet</text>
</g>
<!-- UPDATE_ROLLBACK_COMPLETE&#45;&gt;DELETE_IN_PROGRESS -->
<g id="edge29" class="edge"><title>UPDATE_ROLLBACK_COMPLETE&#45;&gt;DELETE_IN_PROGRESS</title>
<path fill="none" stroke="black" d="M1338.06,-283.757C1178.15,-266.944 879.033,-235.497 724.689,-219.271"/>
<polygon fill="black" stroke="black" points="724.594,-215.741 714.283,-218.176 723.862,-222.703 724.594,-215.741"/>
<text text-anchor="middle" x="1143" y="-248.3" font-family="Times,serif" font-size="14.00">DeleteStack</text>
</g>
<!-- UPDATE_ROLLBACK_COMPLETE_CLEANUP_IN_PROGRESS&#45;&gt;UPDATE_ROLLBACK_COMPLETE -->
<g id="edge30" class="edge"><title>UPDATE_ROLLBACK_COMPLETE_CLEANUP_IN_PROGRESS&#45;&gt;UPDATE_ROLLBACK_COMPLETE</title>
<path fill="none" stroke="green" d="M1249.93,-379.918C1246.28,-364.315 1245.15,-345.048 1256,-332 1265.12,-321.042 1289.19,-313.5 1317.23,-308.314"/>
<polygon fill="green" stroke="green" points="1318.04,-311.727 1327.3,-306.576 1316.85,-304.829 1318.04,-311.727"/>
<text text-anchor="middle" x="1276.5" y="-343.3" font-family="Times,serif" font-size="14.00">success</text>
</g>
<!-- UPDATE_ROLLBACK_COMPLETE_CLEANUP_IN_PROGRESS&#45;&gt;UPDATE_ROLLBACK_COMPLETE -->
<g id="edge31" class="edge"><title>UPDATE_ROLLBACK_COMPLETE_CLEANUP_IN_PROGRESS&#45;&gt;UPDATE_ROLLBACK_COMPLETE</title>
<path fill="none" stroke="red" d="M1281.76,-380.155C1286.84,-374.244 1292.16,-367.949 1297,-362 1307.61,-348.97 1306.09,-341.415 1320,-332 1330.78,-324.704 1343.07,-318.918 1355.62,-314.333"/>
<polygon fill="red" stroke="red" points="1356.92,-317.59 1365.26,-311.055 1354.66,-310.963 1356.92,-317.59"/>
<text text-anchor="middle" x="1375.5" y="-350.8" font-family="Times,serif" font-size="14.00">success, resource(s)</text>
<text text-anchor="middle" x="1375.5" y="-335.8" font-family="Times,serif" font-size="14.00">could not be deleted</text>
</g>
<!-- UPDATE_ROLLBACK_FAILED&#45;&gt;DELETE_IN_PROGRESS -->
<g id="edge32" class="edge"><title>UPDATE_ROLLBACK_FAILED&#45;&gt;DELETE_IN_PROGRESS</title>
<path fill="none" stroke="black" d="M925.486,-389.374C866.696,-353.847 728.845,-270.545 663.107,-230.819"/>
<polygon fill="black" stroke="black" points="664.694,-227.689 654.325,-225.512 661.073,-233.68 664.694,-227.689"/>
<text text-anchor="middle" x="829" y="-292.3" font-family="Times,serif" font-size="14.00">DeleteStack</text>
</g>
<!-- UPDATE_ROLLBACK_FAILED&#45;&gt;UPDATE_ROLLBACK_IN_PROGRESS -->
<g id="edge33" class="edge"><title>UPDATE_ROLLBACK_FAILED&#45;&gt;UPDATE_ROLLBACK_IN_PROGRESS</title>
<path fill="none" stroke="black" d="M970.473,-425.126C991.732,-445.808 1025.7,-478.302 1033,-482 1054.48,-492.884 1105.69,-503.231 1154.05,-511.154"/>
<polygon fill="black" stroke="black" points="1153.56,-514.62 1163.99,-512.756 1154.67,-507.709 1153.56,-514.62"/>
<text text-anchor="middle" x="1101" y="-463.3" font-family="Times,serif" font-size="14.00">ContinueUpdateRollback</text>
</g>
</g>
</svg>
