<?xml version="1.0" encoding="UTF-8" standalone="no"?>
<!DOCTYPE svg PUBLIC "-//W3C//DTD SVG 1.1//EN"
 "http://www.w3.org/Graphics/SVG/1.1/DTD/svg11.dtd">
<!-- Generated by graphviz version 2.40.1 (20161225.0304)
 -->
<!-- Title: all_states Pages: 1 -->
<svg width="1708pt" height="1045pt"
 viewBox="0.00 0.00 1708.26 1045.48" xmlns="http://www.w3.org/2000/svg" xmlns:xlink="http://www.w3.org/1999/xlink">
<g id="graph0" class="graph" transform="scale(1 1) rotate(0) translate(4 1041.4802)">
<title>all_states</title>
<polygon fill="#ffffff" stroke="transparent" points="-4,4 -4,-1041.4802 1704.2585,-1041.4802 1704.2585,4 -4,4"/>
<!-- before_existence -->
<g id="node1" class="node">
<title>before_existence</title>
<polygon fill="none" stroke="#000000" points="1346.2585,-1037.4802 1282.2585,-1037.4802 1282.2585,-1001.4802 1346.2585,-1001.4802 1346.2585,-1037.4802"/>
<text text-anchor="middle" x="1314.2585" y="-1015.7802" font-family="Times,serif" font-size="14.00" fill="#000000">no stack</text>
</g>
<!-- CREATE_IN_PROGRESS -->
<g id="node2" class="node">
<title>CREATE_IN_PROGRESS</title>
<ellipse fill="#ffff00" stroke="#000000" cx="1298.2585" cy="-845.4802" rx="114.2798" ry="18"/>
<text text-anchor="middle" x="1298.2585" y="-841.7802" font-family="Times,serif" font-size="14.00" fill="#000000">CREATE_IN_PROGRESS</text>
</g>
<!-- before_existence&#45;&gt;CREATE_IN_PROGRESS -->
<g id="edge1" class="edge">
<title>before_existence&#45;&gt;CREATE_IN_PROGRESS</title>
<path fill="none" stroke="#000000" d="M1312.3389,-1001.3281C1310.8868,-987.4175 1308.8739,-967.7434 1307.2585,-950.4802 1304.8343,-924.5745 1302.3261,-895.0483 1300.5754,-873.9185"/>
<polygon fill="#000000" stroke="#000000" points="1304.0427,-873.3768 1299.7333,-863.6979 1297.0663,-873.9516 1304.0427,-873.3768"/>
<text text-anchor="middle" x="1341.2585" y="-928.7802" font-family="Times,serif" font-size="14.00" fill="#000000">CreateStack</text>
</g>
<!-- REVIEW_IN_PROGRESS -->
<g id="node3" class="node">
<title>REVIEW_IN_PROGRESS</title>
<ellipse fill="#ffff00" stroke="#000000" cx="1499.2585" cy="-932.4802" rx="115.0796" ry="18"/>
<text text-anchor="middle" x="1499.2585" y="-928.7802" font-family="Times,serif" font-size="14.00" fill="#000000">REVIEW_IN_PROGRESS</text>
</g>
<!-- before_existence&#45;&gt;REVIEW_IN_PROGRESS -->
<g id="edge2" class="edge">
<title>before_existence&#45;&gt;REVIEW_IN_PROGRESS</title>
<path fill="none" stroke="#000000" d="M1346.483,-1004.326C1376.1011,-990.3975 1420.3224,-969.6015 1453.5784,-953.9622"/>
<polygon fill="#000000" stroke="#000000" points="1455.0865,-957.1208 1462.6463,-949.6979 1452.1075,-950.7863 1455.0865,-957.1208"/>
<text text-anchor="middle" x="1466.7585" y="-972.2802" font-family="Times,serif" font-size="14.00" fill="#000000">CreateChangeSet</text>
</g>
<!-- CREATE_COMPLETE -->
<g id="node4" class="node">
<title>CREATE_COMPLETE</title>
<ellipse fill="#00ff00" stroke="#000000" cx="1298.2585" cy="-728.4802" rx="102.0819" ry="18"/>
<text text-anchor="middle" x="1298.2585" y="-724.7802" font-family="Times,serif" font-size="14.00" fill="#000000">CREATE_COMPLETE</text>
</g>
<!-- CREATE_IN_PROGRESS&#45;&gt;CREATE_COMPLETE -->
<g id="edge7" class="edge">
<title>CREATE_IN_PROGRESS&#45;&gt;CREATE_COMPLETE</title>
<path fill="none" stroke="#00ff00" d="M1298.2585,-827.4554C1298.2585,-808.6159 1298.2585,-778.7915 1298.2585,-756.8016"/>
<polygon fill="#00ff00" stroke="#00ff00" points="1301.7586,-756.7183 1298.2585,-746.7183 1294.7586,-756.7184 1301.7586,-756.7183"/>
<text text-anchor="middle" x="1319.2585" y="-783.2802" font-family="Times,serif" font-size="14.00" fill="#000000">success</text>
</g>
<!-- DELETE_IN_PROGRESS -->
<g id="node6" class="node">
<title>DELETE_IN_PROGRESS</title>
<ellipse fill="#ffff00" stroke="#000000" cx="678.2585" cy="-207" rx="114.2798" ry="18"/>
<text text-anchor="middle" x="678.2585" y="-203.3" font-family="Times,serif" font-size="14.00" fill="#000000">DELETE_IN_PROGRESS</text>
</g>
<!-- CREATE_IN_PROGRESS&#45;&gt;DELETE_IN_PROGRESS -->
<g id="edge10" class="edge">
<title>CREATE_IN_PROGRESS&#45;&gt;DELETE_IN_PROGRESS</title>
<path fill="none" stroke="#ff0000" d="M1358.4358,-830.1503C1406.6417,-813.8272 1466.2585,-782.683 1466.2585,-728.4802 1466.2585,-728.4802 1466.2585,-728.4802 1466.2585,-294 1466.2585,-260.6789 1015.2373,-227.9802 795.6315,-214.0339"/>
<polygon fill="#ff0000" stroke="#ff0000" points="795.5527,-210.522 785.3518,-213.384 795.111,-217.5081 795.5527,-210.522"/>
<text text-anchor="middle" x="1531.2585" y="-528.4102" font-family="Times,serif" font-size="14.00" fill="#000000">failed</text>
<text text-anchor="middle" x="1531.2585" y="-513.4102" font-family="Times,serif" font-size="14.00" fill="#000000">OnFailure==DELETE</text>
</g>
<!-- ROLLBACK_IN_PROGRESS -->
<g id="node8" class="node">
<title>ROLLBACK_IN_PROGRESS</title>
<ellipse fill="#ffff00" stroke="#000000" cx="252.2585" cy="-404.8701" rx="129.9769" ry="18"/>
<text text-anchor="middle" x="252.2585" y="-401.1701" font-family="Times,serif" font-size="14.00" fill="#000000">ROLLBACK_IN_PROGRESS</text>
</g>
<!-- CREATE_IN_PROGRESS&#45;&gt;ROLLBACK_IN_PROGRESS -->
<g id="edge8" class="edge">
<title>CREATE_IN_PROGRESS&#45;&gt;ROLLBACK_IN_PROGRESS</title>
<path fill="none" stroke="#ff0000" d="M1183.7625,-844.2902C914.8083,-839.9767 265.2585,-820.0773 265.2585,-728.4802 265.2585,-728.4802 265.2585,-728.4802 265.2585,-524.6102 265.2585,-493.0984 260.7536,-457.193 257.0476,-432.9865"/>
<polygon fill="#ff0000" stroke="#ff0000" points="260.4966,-432.3884 255.472,-423.0609 253.5831,-433.4859 260.4966,-432.3884"/>
<text text-anchor="middle" x="307.2585" y="-616.7802" font-family="Times,serif" font-size="14.00" fill="#000000">failed (default)</text>
</g>
<!-- CREATE_FAILED -->
<g id="node9" class="node">
<title>CREATE_FAILED</title>
<ellipse fill="#ffc0cb" stroke="#000000" cx="773.2585" cy="-674.4802" rx="85.2851" ry="18"/>
<text text-anchor="middle" x="773.2585" y="-670.7802" font-family="Times,serif" font-size="14.00" fill="#000000">CREATE_FAILED</text>
</g>
<!-- CREATE_IN_PROGRESS&#45;&gt;CREATE_FAILED -->
<g id="edge9" class="edge">
<title>CREATE_IN_PROGRESS&#45;&gt;CREATE_FAILED</title>
<path fill="none" stroke="#ff0000" d="M1220.9534,-832.1561C1190.8218,-826.2457 1156.1649,-818.5583 1125.2585,-809.4802 1012.8812,-776.4718 885.6144,-723.6455 819.185,-694.8365"/>
<polygon fill="#ff0000" stroke="#ff0000" points="820.4003,-691.5483 809.8344,-690.7654 817.606,-697.9664 820.4003,-691.5483"/>
<text text-anchor="middle" x="1209.7585" y="-798.2802" font-family="Times,serif" font-size="14.00" fill="#000000">failed</text>
<text text-anchor="middle" x="1209.7585" y="-783.2802" font-family="Times,serif" font-size="14.00" fill="#000000">OnFailure==DO_NOTHING</text>
<text text-anchor="middle" x="1209.7585" y="-768.2802" font-family="Times,serif" font-size="14.00" fill="#000000">or DisableRollback==true</text>
</g>
<!-- REVIEW_IN_PROGRESS&#45;&gt;CREATE_IN_PROGRESS -->
<g id="edge5" class="edge">
<title>REVIEW_IN_PROGRESS&#45;&gt;CREATE_IN_PROGRESS</title>
<path fill="none" stroke="#000000" d="M1460.0265,-915.4992C1427.6535,-901.487 1381.565,-881.5383 1346.858,-866.5158"/>
<polygon fill="#000000" stroke="#000000" points="1347.9591,-863.1787 1337.3915,-862.4184 1345.1785,-869.6027 1347.9591,-863.1787"/>
<text text-anchor="middle" x="1464.7585" y="-885.2802" font-family="Times,serif" font-size="14.00" fill="#000000">ExecuteChangeSet</text>
</g>
<!-- DELETE_COMPLETE -->
<g id="node7" class="node">
<title>DELETE_COMPLETE</title>
<ellipse fill="#00ff00" stroke="#000000" cx="898.2585" cy="-105" rx="102.0819" ry="18"/>
<text text-anchor="middle" x="898.2585" y="-101.3" font-family="Times,serif" font-size="14.00" fill="#000000">DELETE_COMPLETE</text>
</g>
<!-- REVIEW_IN_PROGRESS&#45;&gt;DELETE_COMPLETE -->
<g id="edge6" class="edge">
<title>REVIEW_IN_PROGRESS&#45;&gt;DELETE_COMPLETE</title>
<path fill="none" stroke="#000000" d="M1561.0861,-917.2274C1595.8183,-904.5567 1632.2585,-882.453 1632.2585,-845.4802 1632.2585,-845.4802 1632.2585,-845.4802 1632.2585,-207 1632.2585,-144.8079 1213.5106,-118.374 1008.5882,-109.1615"/>
<polygon fill="#000000" stroke="#000000" points="1008.5409,-105.656 998.3957,-108.7096 1008.2308,-112.6492 1008.5409,-105.656"/>
<text text-anchor="middle" x="1666.2585" y="-520.9102" font-family="Times,serif" font-size="14.00" fill="#000000">DeleteStack</text>
</g>
<!-- UPDATE_IN_PROGRESS -->
<g id="node5" class="node">
<title>UPDATE_IN_PROGRESS</title>
<ellipse fill="#ffff00" stroke="#000000" cx="924.2585" cy="-620.4802" rx="115.0796" ry="18"/>
<text text-anchor="middle" x="924.2585" y="-616.7802" font-family="Times,serif" font-size="14.00" fill="#000000">UPDATE_IN_PROGRESS</text>
</g>
<!-- CREATE_COMPLETE&#45;&gt;UPDATE_IN_PROGRESS -->
<g id="edge3" class="edge">
<title>CREATE_COMPLETE&#45;&gt;UPDATE_IN_PROGRESS</title>
<path fill="none" stroke="#000000" d="M1244.6734,-713.0065C1177.2522,-693.5372 1061.5519,-660.1265 989.1808,-639.2279"/>
<polygon fill="#000000" stroke="#000000" points="989.8446,-635.7766 979.2661,-636.3648 987.9025,-642.5018 989.8446,-635.7766"/>
<text text-anchor="middle" x="1220.7585" y="-678.2802" font-family="Times,serif" font-size="14.00" fill="#000000">UpdateStack or</text>
<text text-anchor="middle" x="1220.7585" y="-663.2802" font-family="Times,serif" font-size="14.00" fill="#000000">ExecuteChangeSet</text>
</g>
<!-- CREATE_COMPLETE&#45;&gt;DELETE_IN_PROGRESS -->
<g id="edge4" class="edge">
<title>CREATE_COMPLETE&#45;&gt;DELETE_IN_PROGRESS</title>
<path fill="none" stroke="#000000" d="M1299.8526,-710.4305C1304.7932,-663.326 1323.3858,-534.4648 1384.2585,-449.7401 1392.2473,-438.621 1403.0165,-443.9259 1409.2585,-431.7401 1420.1475,-410.4822 1422.3136,-398.0009 1409.2585,-378 1342.4967,-275.7184 981.6603,-231.545 793.1397,-215.2188"/>
<polygon fill="#000000" stroke="#000000" points="793.1735,-211.7091 782.912,-214.3458 792.578,-218.6837 793.1735,-211.7091"/>
<text text-anchor="middle" x="1418.2585" y="-461.0401" font-family="Times,serif" font-size="14.00" fill="#000000">DeleteStack</text>
</g>
<!-- UPDATE_COMPLETE_CLEANUP_IN_PROGRESS -->
<g id="node15" class="node">
<title>UPDATE_COMPLETE_CLEANUP_IN_PROGRESS</title>
<ellipse fill="#ffff00" stroke="#000000" cx="739.2585" cy="-524.6102" rx="132.8722" ry="26.7407"/>
<text text-anchor="middle" x="739.2585" y="-528.4102" font-family="Times,serif" font-size="14.00" fill="#000000">UPDATE_COMPLETE</text>
<text text-anchor="middle" x="739.2585" y="-513.4102" font-family="Times,serif" font-size="14.00" fill="#000000">CLEANUP_IN_PROGRESS</text>
</g>
<!-- UPDATE_IN_PROGRESS&#45;&gt;UPDATE_COMPLETE_CLEANUP_IN_PROGRESS -->
<g id="edge25" class="edge">
<title>UPDATE_IN_PROGRESS&#45;&gt;UPDATE_COMPLETE_CLEANUP_IN_PROGRESS</title>
<path fill="none" stroke="#00ff00" d="M884.435,-603.457C871.4967,-597.6886 857.155,-591.0398 844.2585,-584.4802 826.6623,-575.5301 807.8187,-565.0727 791.0209,-555.4246"/>
<polygon fill="#00ff00" stroke="#00ff00" points="792.3292,-552.1381 781.9202,-550.1625 788.8253,-558.198 792.3292,-552.1381"/>
<text text-anchor="middle" x="865.2585" y="-573.2802" font-family="Times,serif" font-size="14.00" fill="#000000">success</text>
</g>
<!-- UPDATE_ROLLBACK_IN_PROGRESS -->
<g id="node16" class="node">
<title>UPDATE_ROLLBACK_IN_PROGRESS</title>
<ellipse fill="#ffff00" stroke="#000000" cx="1099.2585" cy="-524.6102" rx="170.8697" ry="18"/>
<text text-anchor="middle" x="1099.2585" y="-520.9102" font-family="Times,serif" font-size="14.00" fill="#000000">UPDATE_ROLLBACK_IN_PROGRESS</text>
</g>
<!-- UPDATE_IN_PROGRESS&#45;&gt;UPDATE_ROLLBACK_IN_PROGRESS -->
<g id="edge26" class="edge">
<title>UPDATE_IN_PROGRESS&#45;&gt;UPDATE_ROLLBACK_IN_PROGRESS</title>
<path fill="none" stroke="#ff0000" d="M998.9327,-606.6545C1026.3423,-600.4719 1053.3431,-592.722 1064.2585,-584.4802 1075.1432,-576.2616 1083.2482,-563.5934 1088.9022,-552.0227"/>
<polygon fill="#ff0000" stroke="#ff0000" points="1092.1916,-553.2407 1093.0823,-542.6833 1085.8024,-550.3809 1092.1916,-553.2407"/>
<text text-anchor="middle" x="1094.2585" y="-573.2802" font-family="Times,serif" font-size="14.00" fill="#000000">failed</text>
</g>
<!-- UPDATE_IN_PROGRESS&#45;&gt;UPDATE_ROLLBACK_IN_PROGRESS -->
<g id="edge27" class="edge">
<title>UPDATE_IN_PROGRESS&#45;&gt;UPDATE_ROLLBACK_IN_PROGRESS</title>
<path fill="none" stroke="#000000" d="M928.8008,-602.1007C932.3872,-591.1952 938.4619,-577.8989 948.2585,-569.4802 959.0662,-560.1926 986.0977,-551.0309 1014.3532,-543.4318"/>
<polygon fill="#000000" stroke="#000000" points="1015.5848,-546.7275 1024.374,-540.8114 1013.8138,-539.9552 1015.5848,-546.7275"/>
<text text-anchor="middle" x="1004.2585" y="-573.2802" font-family="Times,serif" font-size="14.00" fill="#000000">CancelUpdateStack</text>
</g>
<!-- DELETE_IN_PROGRESS&#45;&gt;DELETE_COMPLETE -->
<g id="edge14" class="edge">
<title>DELETE_IN_PROGRESS&#45;&gt;DELETE_COMPLETE</title>
<path fill="none" stroke="#00ff00" d="M757.4477,-193.9404C778.8893,-188.5898 801.5919,-181.1794 821.2585,-171 841.1802,-160.6886 860.3445,-144.2935 874.5709,-130.4241"/>
<polygon fill="#00ff00" stroke="#00ff00" points="877.3577,-132.5862 881.9398,-123.0335 872.4006,-127.6437 877.3577,-132.5862"/>
<text text-anchor="middle" x="882.2585" y="-152.3" font-family="Times,serif" font-size="14.00" fill="#000000">success</text>
</g>
<!-- DELETE_FAILED -->
<g id="node11" class="node">
<title>DELETE_FAILED</title>
<ellipse fill="#ffc0cb" stroke="#000000" cx="692.2585" cy="-105" rx="85.2851" ry="18"/>
<text text-anchor="middle" x="692.2585" y="-101.3" font-family="Times,serif" font-size="14.00" fill="#000000">DELETE_FAILED</text>
</g>
<!-- DELETE_IN_PROGRESS&#45;&gt;DELETE_FAILED -->
<g id="edge15" class="edge">
<title>DELETE_IN_PROGRESS&#45;&gt;DELETE_FAILED</title>
<path fill="none" stroke="#ff0000" d="M659.2917,-189.1619C654.8075,-183.8002 650.6404,-177.5788 648.2585,-171 643.7195,-158.463 642.5488,-153.0489 648.2585,-141 650.2622,-136.7718 653.0326,-132.875 656.2171,-129.3319"/>
<polygon fill="#ff0000" stroke="#ff0000" points="658.9143,-131.5949 663.713,-122.1492 654.0712,-126.5407 658.9143,-131.5949"/>
<text text-anchor="middle" x="664.2585" y="-152.3" font-family="Times,serif" font-size="14.00" fill="#000000">failed</text>
</g>
<!-- after_existence -->
<g id="node10" class="node">
<title>after_existence</title>
<polygon fill="none" stroke="#000000" points="930.2585,-36 866.2585,-36 866.2585,0 930.2585,0 930.2585,-36"/>
<text text-anchor="middle" x="898.2585" y="-14.3" font-family="Times,serif" font-size="14.00" fill="#000000">no stack</text>
</g>
<!-- DELETE_COMPLETE&#45;&gt;after_existence -->
<g id="edge12" class="edge">
<title>DELETE_COMPLETE&#45;&gt;after_existence</title>
<path fill="none" stroke="#000000" d="M898.2585,-86.9735C898.2585,-75.1918 898.2585,-59.5607 898.2585,-46.1581"/>
<polygon fill="#000000" stroke="#000000" points="901.7586,-46.0033 898.2585,-36.0034 894.7586,-46.0034 901.7586,-46.0033"/>
<text text-anchor="middle" x="936.7585" y="-57.8" font-family="Times,serif" font-size="14.00" fill="#000000"> 90 days later</text>
</g>
<!-- ROLLBACK_IN_PROGRESS&#45;&gt;DELETE_IN_PROGRESS -->
<g id="edge20" class="edge">
<title>ROLLBACK_IN_PROGRESS&#45;&gt;DELETE_IN_PROGRESS</title>
<path fill="none" stroke="#000000" d="M169.7305,-390.8394C81.1634,-372.385 -40.0789,-335.1781 13.2585,-276 48.8183,-236.5462 373.4907,-218.2368 555.6667,-211.0051"/>
<polygon fill="#000000" stroke="#000000" points="555.9879,-214.4953 565.8433,-210.6068 555.7141,-207.5007 555.9879,-214.4953"/>
<text text-anchor="middle" x="47.2585" y="-290.3" font-family="Times,serif" font-size="14.00" fill="#000000">DeleteStack</text>
</g>
<!-- ROLLBACK_COMPLETE -->
<g id="node12" class="node">
<title>ROLLBACK_COMPLETE</title>
<ellipse fill="#00ff00" stroke="#000000" cx="207.2585" cy="-294" rx="116.9792" ry="18"/>
<text text-anchor="middle" x="207.2585" y="-290.3" font-family="Times,serif" font-size="14.00" fill="#000000">ROLLBACK_COMPLETE</text>
</g>
<!-- ROLLBACK_IN_PROGRESS&#45;&gt;ROLLBACK_COMPLETE -->
<g id="edge18" class="edge">
<title>ROLLBACK_IN_PROGRESS&#45;&gt;ROLLBACK_COMPLETE</title>
<path fill="none" stroke="#00ff00" d="M244.8277,-386.5621C237.6195,-368.8028 226.5925,-341.6347 218.3467,-321.3188"/>
<polygon fill="#00ff00" stroke="#00ff00" points="221.555,-319.9168 214.5511,-311.9673 215.0689,-322.5494 221.555,-319.9168"/>
<text text-anchor="middle" x="255.2585" y="-341.3" font-family="Times,serif" font-size="14.00" fill="#000000">success</text>
</g>
<!-- ROLLBACK_FAILED -->
<g id="node13" class="node">
<title>ROLLBACK_FAILED</title>
<ellipse fill="#ffc0cb" stroke="#000000" cx="442.2585" cy="-294" rx="100.1823" ry="18"/>
<text text-anchor="middle" x="442.2585" y="-290.3" font-family="Times,serif" font-size="14.00" fill="#000000">ROLLBACK_FAILED</text>
</g>
<!-- ROLLBACK_IN_PROGRESS&#45;&gt;ROLLBACK_FAILED -->
<g id="edge19" class="edge">
<title>ROLLBACK_IN_PROGRESS&#45;&gt;ROLLBACK_FAILED</title>
<path fill="none" stroke="#ff0000" d="M282.3646,-387.3024C315.2586,-368.1078 368.036,-337.3108 403.8803,-316.3947"/>
<polygon fill="#ff0000" stroke="#ff0000" points="405.733,-319.366 412.6061,-311.303 402.205,-313.32 405.733,-319.366"/>
<text text-anchor="middle" x="392.2585" y="-341.3" font-family="Times,serif" font-size="14.00" fill="#000000">failed</text>
</g>
<!-- CREATE_FAILED&#45;&gt;DELETE_IN_PROGRESS -->
<g id="edge11" class="edge">
<title>CREATE_FAILED&#45;&gt;DELETE_IN_PROGRESS</title>
<path fill="none" stroke="#000000" d="M705.491,-663.5696C615.6686,-644.6922 464.8174,-596.1101 433.2585,-479.7401 420.1221,-431.3009 449.2801,-415.8332 482.2585,-378 496.938,-361.1596 614.0984,-257.3045 631.2585,-243 635.9116,-239.1212 640.9134,-235.1203 645.8566,-231.259"/>
<polygon fill="#000000" stroke="#000000" points="648.2689,-233.8185 654.0486,-224.939 643.9931,-228.2762 648.2689,-233.8185"/>
<text text-anchor="middle" x="467.2585" y="-461.0401" font-family="Times,serif" font-size="14.00" fill="#000000">DeleteStack</text>
</g>
<!-- DELETE_FAILED&#45;&gt;DELETE_IN_PROGRESS -->
<g id="edge13" class="edge">
<title>DELETE_FAILED&#45;&gt;DELETE_IN_PROGRESS</title>
<path fill="none" stroke="#000000" d="M690.2688,-123.2379C688.7675,-136.5056 686.576,-154.8913 684.2585,-171 683.8953,-173.5243 683.498,-176.1448 683.0863,-178.7688"/>
<polygon fill="#000000" stroke="#000000" points="679.6202,-178.2781 681.4687,-188.7104 686.5294,-179.4023 679.6202,-178.2781"/>
<text text-anchor="middle" x="752.2585" y="-159.8" font-family="Times,serif" font-size="14.00" fill="#000000">DeleteStack</text>
<text text-anchor="middle" x="752.2585" y="-144.8" font-family="Times,serif" font-size="14.00" fill="#000000">fix or RetainResources</text>
</g>
<!-- ROLLBACK_COMPLETE&#45;&gt;DELETE_IN_PROGRESS -->
<g id="edge16" class="edge">
<title>ROLLBACK_COMPLETE&#45;&gt;DELETE_IN_PROGRESS</title>
<path fill="none" stroke="#000000" d="M259.6376,-277.8966C297.5475,-266.7447 350.1803,-252.2901 397.2585,-243 453.9227,-231.8183 517.7297,-223.3199 570.203,-217.3959"/>
<polygon fill="#000000" stroke="#000000" points="570.6512,-220.8677 580.2024,-216.2826 569.8765,-213.9107 570.6512,-220.8677"/>
<text text-anchor="middle" x="431.2585" y="-246.8" font-family="Times,serif" font-size="14.00" fill="#000000">DeleteStack</text>
</g>
<!-- ROLLBACK_FAILED&#45;&gt;DELETE_IN_PROGRESS -->
<g id="edge17" class="edge">
<title>ROLLBACK_FAILED&#45;&gt;DELETE_IN_PROGRESS</title>
<path fill="none" stroke="#000000" d="M453.9691,-275.8759C462.2015,-264.6387 474.2263,-250.8873 488.2585,-243 504.378,-233.9394 541.8048,-226.0107 579.2173,-219.9174"/>
<polygon fill="#000000" stroke="#000000" points="579.9036,-223.3524 589.2315,-218.3284 578.8065,-216.4389 579.9036,-223.3524"/>
<text text-anchor="middle" x="523.2585" y="-246.8" font-family="Times,serif" font-size="14.00" fill="#000000">DeleteStack</text>
</g>
<!-- UPDATE_COMPLETE -->
<g id="node14" class="node">
<title>UPDATE_COMPLETE</title>
<ellipse fill="#00ff00" stroke="#000000" cx="594.2585" cy="-404.8701" rx="102.8821" ry="18"/>
<text text-anchor="middle" x="594.2585" y="-401.1701" font-family="Times,serif" font-size="14.00" fill="#000000">UPDATE_COMPLETE</text>
</g>
<!-- UPDATE_COMPLETE&#45;&gt;UPDATE_IN_PROGRESS -->
<g id="edge22" class="edge">
<title>UPDATE_COMPLETE&#45;&gt;UPDATE_IN_PROGRESS</title>
<path fill="none" stroke="#000000" d="M571.9858,-422.7193C542.2448,-446.7986 492.7543,-487.824 488.2585,-497.7401 478.396,-519.4933 472.7456,-533.3193 488.2585,-551.4802 509.2581,-576.0645 692.0346,-598.2205 814.1753,-610.4667"/>
<polygon fill="#000000" stroke="#000000" points="814.0304,-613.9695 824.3276,-611.4759 814.7228,-607.0038 814.0304,-613.9695"/>
<text text-anchor="middle" x="543.7585" y="-528.4102" font-family="Times,serif" font-size="14.00" fill="#000000">UpdateStack or</text>
<text text-anchor="middle" x="543.7585" y="-513.4102" font-family="Times,serif" font-size="14.00" fill="#000000">ExecuteChangeSet</text>
</g>
<!-- UPDATE_COMPLETE&#45;&gt;DELETE_IN_PROGRESS -->
<g id="edge21" class="edge">
<title>UPDATE_COMPLETE&#45;&gt;DELETE_IN_PROGRESS</title>
<path fill="none" stroke="#000000" d="M596.2224,-386.5637C599.5149,-360.8272 607.6071,-312.962 625.2585,-276 632.7341,-260.3461 644.1687,-244.8509 654.5057,-232.5224"/>
<polygon fill="#000000" stroke="#000000" points="657.1958,-234.7624 661.0875,-224.9082 651.9001,-230.1847 657.1958,-234.7624"/>
<text text-anchor="middle" x="659.2585" y="-290.3" font-family="Times,serif" font-size="14.00" fill="#000000">DeleteStack</text>
</g>
<!-- UPDATE_COMPLETE_CLEANUP_IN_PROGRESS&#45;&gt;UPDATE_COMPLETE -->
<g id="edge23" class="edge">
<title>UPDATE_COMPLETE_CLEANUP_IN_PROGRESS&#45;&gt;UPDATE_COMPLETE</title>
<path fill="none" stroke="#ff0000" d="M708.9543,-498.3352C692.0971,-483.8441 670.6615,-465.6215 651.2585,-449.7401 642.8391,-442.8488 633.6109,-435.4988 625.0786,-428.7844"/>
<polygon fill="#ff0000" stroke="#ff0000" points="627.19,-425.9923 617.1606,-422.5774 622.8714,-431.5014 627.19,-425.9923"/>
<text text-anchor="middle" x="743.7585" y="-468.5401" font-family="Times,serif" font-size="14.00" fill="#000000">success, resource(s)</text>
<text text-anchor="middle" x="743.7585" y="-453.5401" font-family="Times,serif" font-size="14.00" fill="#000000">could not be deleted</text>
</g>
<!-- UPDATE_COMPLETE_CLEANUP_IN_PROGRESS&#45;&gt;UPDATE_COMPLETE -->
<g id="edge24" class="edge">
<title>UPDATE_COMPLETE_CLEANUP_IN_PROGRESS&#45;&gt;UPDATE_COMPLETE</title>
<path fill="none" stroke="#00ff00" d="M654.3671,-503.8434C632.2659,-496.8031 612.5796,-488.4891 605.2585,-479.7401 594.572,-466.9693 591.771,-448.4909 591.6668,-433.0874"/>
<polygon fill="#00ff00" stroke="#00ff00" points="595.1673,-433.1208 591.9618,-423.0226 588.1703,-432.9157 595.1673,-433.1208"/>
<text text-anchor="middle" x="626.2585" y="-461.0401" font-family="Times,serif" font-size="14.00" fill="#000000">success</text>
</g>
<!-- UPDATE_ROLLBACK_COMPLETE_CLEANUP_IN_PROGRESS -->
<g id="node18" class="node">
<title>UPDATE_ROLLBACK_COMPLETE_CLEANUP_IN_PROGRESS</title>
<ellipse fill="#ffff00" stroke="#000000" cx="926.2585" cy="-404.8701" rx="172.5681" ry="26.7407"/>
<text text-anchor="middle" x="926.2585" y="-408.6701" font-family="Times,serif" font-size="14.00" fill="#000000">UPDATE_ROLLBACK_COMPLETE</text>
<text text-anchor="middle" x="926.2585" y="-393.6701" font-family="Times,serif" font-size="14.00" fill="#000000">CLEANUP_IN_PROGRESS</text>
</g>
<!-- UPDATE_ROLLBACK_IN_PROGRESS&#45;&gt;UPDATE_ROLLBACK_COMPLETE_CLEANUP_IN_PROGRESS -->
<g id="edge34" class="edge">
<title>UPDATE_ROLLBACK_IN_PROGRESS&#45;&gt;UPDATE_ROLLBACK_COMPLETE_CLEANUP_IN_PROGRESS</title>
<path fill="none" stroke="#00ff00" d="M1073.3587,-506.6839C1046.7946,-488.2978 1004.9072,-459.3059 972.6132,-436.9539"/>
<polygon fill="#00ff00" stroke="#00ff00" points="974.4177,-433.9464 964.2032,-431.1331 970.4339,-439.7022 974.4177,-433.9464"/>
<text text-anchor="middle" x="1054.2585" y="-461.0401" font-family="Times,serif" font-size="14.00" fill="#000000">success</text>
</g>
<!-- UPDATE_ROLLBACK_FAILED -->
<g id="node19" class="node">
<title>UPDATE_ROLLBACK_FAILED</title>
<ellipse fill="#ffc0cb" stroke="#000000" cx="1258.2585" cy="-404.8701" rx="141.8751" ry="18"/>
<text text-anchor="middle" x="1258.2585" y="-401.1701" font-family="Times,serif" font-size="14.00" fill="#000000">UPDATE_ROLLBACK_FAILED</text>
</g>
<!-- UPDATE_ROLLBACK_IN_PROGRESS&#45;&gt;UPDATE_ROLLBACK_FAILED -->
<g id="edge35" class="edge">
<title>UPDATE_ROLLBACK_IN_PROGRESS&#45;&gt;UPDATE_ROLLBACK_FAILED</title>
<path fill="none" stroke="#ff0000" d="M1173.4213,-508.3103C1202.5391,-500.4898 1231.3656,-490.4879 1241.2585,-479.7401 1252.7736,-467.23 1257.034,-448.5974 1258.4104,-433.0502"/>
<polygon fill="#ff0000" stroke="#ff0000" points="1261.9145,-433.0662 1258.9563,-422.8927 1254.9246,-432.6905 1261.9145,-433.0662"/>
<text text-anchor="middle" x="1271.2585" y="-461.0401" font-family="Times,serif" font-size="14.00" fill="#000000">failed</text>
</g>
<!-- UPDATE_ROLLBACK_COMPLETE -->
<g id="node17" class="node">
<title>UPDATE_ROLLBACK_COMPLETE</title>
<ellipse fill="#00ff00" stroke="#000000" cx="861.2585" cy="-294" rx="158.6719" ry="18"/>
<text text-anchor="middle" x="861.2585" y="-290.3" font-family="Times,serif" font-size="14.00" fill="#000000">UPDATE_ROLLBACK_COMPLETE</text>
</g>
<!-- UPDATE_ROLLBACK_COMPLETE&#45;&gt;UPDATE_IN_PROGRESS -->
<g id="edge28" class="edge">
<title>UPDATE_ROLLBACK_COMPLETE&#45;&gt;UPDATE_IN_PROGRESS</title>
<path fill="none" stroke="#000000" d="M819.6407,-311.519C792.7795,-325.2871 760.0113,-347.298 744.2585,-378 733.3551,-399.2505 729.916,-412.6414 744.2585,-431.7401 761.4887,-454.6841 780.1288,-437.8848 806.2585,-449.7401 842.2981,-466.0916 856.7066,-466.701 881.2585,-497.7401 903.3936,-525.7239 914.5861,-565.9282 919.911,-592.6033"/>
<polygon fill="#000000" stroke="#000000" points="916.472,-593.2545 921.7333,-602.4507 923.3552,-591.9807 916.472,-593.2545"/>
<text text-anchor="middle" x="918.7585" y="-468.5401" font-family="Times,serif" font-size="14.00" fill="#000000">UpdateStack or</text>
<text text-anchor="middle" x="918.7585" y="-453.5401" font-family="Times,serif" font-size="14.00" fill="#000000">ExecuteChangeSet</text>
</g>
<!-- UPDATE_ROLLBACK_COMPLETE&#45;&gt;DELETE_IN_PROGRESS -->
<g id="edge29" class="edge">
<title>UPDATE_ROLLBACK_COMPLETE&#45;&gt;DELETE_IN_PROGRESS</title>
<path fill="none" stroke="#000000" d="M824.2257,-276.3943C795.1686,-262.5802 754.5895,-243.2885 723.5903,-228.5512"/>
<polygon fill="#000000" stroke="#000000" points="724.8349,-225.2675 714.3008,-224.1348 721.8293,-231.5895 724.8349,-225.2675"/>
<text text-anchor="middle" x="814.2585" y="-246.8" font-family="Times,serif" font-size="14.00" fill="#000000">DeleteStack</text>
</g>
<!-- UPDATE_ROLLBACK_COMPLETE_CLEANUP_IN_PROGRESS&#45;&gt;UPDATE_ROLLBACK_COMPLETE -->
<g id="edge30" class="edge">
<title>UPDATE_ROLLBACK_COMPLETE_CLEANUP_IN_PROGRESS&#45;&gt;UPDATE_ROLLBACK_COMPLETE</title>
<path fill="none" stroke="#00ff00" d="M877.8609,-378.8907C871.6112,-373.4812 866.0705,-367.1944 862.2585,-360 856.2414,-348.6438 855.3043,-334.5711 856.1511,-322.3414"/>
<polygon fill="#00ff00" stroke="#00ff00" points="859.654,-322.5067 857.2716,-312.1832 852.6962,-321.7391 859.654,-322.5067"/>
<text text-anchor="middle" x="883.2585" y="-341.3" font-family="Times,serif" font-size="14.00" fill="#000000">success</text>
</g>
<!-- UPDATE_ROLLBACK_COMPLETE_CLEANUP_IN_PROGRESS&#45;&gt;UPDATE_ROLLBACK_COMPLETE -->
<g id="edge31" class="edge">
<title>UPDATE_ROLLBACK_COMPLETE_CLEANUP_IN_PROGRESS&#45;&gt;UPDATE_ROLLBACK_COMPLETE</title>
<path fill="none" stroke="#ff0000" d="M922.3101,-377.9612C919.1726,-362.9326 913.6846,-344.394 904.2585,-330 901.7299,-326.1387 898.6632,-322.473 895.3445,-319.0628"/>
<polygon fill="#ff0000" stroke="#ff0000" points="897.4921,-316.2802 887.7876,-312.0289 892.7228,-321.4041 897.4921,-316.2802"/>
<text text-anchor="middle" x="975.7585" y="-348.8" font-family="Times,serif" font-size="14.00" fill="#000000">success, resource(s)</text>
<text text-anchor="middle" x="975.7585" y="-333.8" font-family="Times,serif" font-size="14.00" fill="#000000">could not be deleted</text>
</g>
<!-- UPDATE_ROLLBACK_FAILED&#45;&gt;DELETE_IN_PROGRESS -->
<g id="edge32" class="edge">
<title>UPDATE_ROLLBACK_FAILED&#45;&gt;DELETE_IN_PROGRESS</title>
<path fill="none" stroke="#000000" d="M1233.1267,-387.1432C1192.3156,-359.2061 1108.2274,-305.1255 1029.2585,-276 949.1481,-246.4535 853.845,-228.7416 782.7749,-218.6746"/>
<polygon fill="#000000" stroke="#000000" points="782.8559,-215.1524 772.4696,-217.2443 781.8935,-222.0859 782.8559,-215.1524"/>
<text text-anchor="middle" x="1139.2585" y="-290.3" font-family="Times,serif" font-size="14.00" fill="#000000">DeleteStack</text>
</g>
<!-- UPDATE_ROLLBACK_FAILED&#45;&gt;UPDATE_ROLLBACK_IN_PROGRESS -->
<g id="edge33" class="edge">
<title>UPDATE_ROLLBACK_FAILED&#45;&gt;UPDATE_ROLLBACK_IN_PROGRESS</title>
<path fill="none" stroke="#000000" d="M1170.4829,-419.0161C1136.9312,-426.3682 1104.2871,-436.5992 1094.2585,-449.7401 1084.3053,-462.7822 1085.355,-481.1116 1088.9907,-496.3698"/>
<polygon fill="#000000" stroke="#000000" points="1085.7224,-497.6737 1091.8175,-506.3398 1092.4569,-495.7643 1085.7224,-497.6737"/>
<text text-anchor="middle" x="1167.7585" y="-461.0401" font-family="Times,serif" font-size="14.00" fill="#000000">ContinueUpdateRollback</text>
</g>
</g>
</svg>
